<svg xmlns="http://www.w3.org/2000/svg" viewBox="0 0 255 25.26"><defs><style>.a{fill:#fff;}</style></defs><title>sharonmoves</title><path class="a" d="M4.63,24.81a7.3,7.3,0,0,1-3.25-2.48A6.24,6.24,0,0,1,.25,18.62v-.74c0-.37.2-.56.59-.56h3q.59,0,.59.53v.56A3.21,3.21,0,0,0,5.92,21.1a6.59,6.59,0,0,0,3.94,1.07,5.3,5.3,0,0,0,3.37-.91,2.89,2.89,0,0,0,1.14-2.36,2.4,2.4,0,0,0-.62-1.67A5.83,5.83,0,0,0,12,16q-1.16-.56-3.47-1.41a37.06,37.06,0,0,1-4.22-1.72,7.79,7.79,0,0,1-2.7-2.2A5.47,5.47,0,0,1,.51,7.18,5.82,5.82,0,0,1,2.85,2.29,10.07,10.07,0,0,1,9.13.5,12.12,12.12,0,0,1,14,1.41,7.7,7.7,0,0,1,17.27,4a6.32,6.32,0,0,1,1.17,3.78V8.2q0,.56-.59.56h-3a.68.68,0,0,1-.42-.12.36.36,0,0,1-.17-.3V8a3.48,3.48,0,0,0-1.41-2.8A6,6,0,0,0,8.94,4a5.28,5.28,0,0,0-3.14.81A2.66,2.66,0,0,0,4.69,7.11a2.51,2.51,0,0,0,.59,1.72A5.26,5.26,0,0,0,7,10.05q1.17.55,3.63,1.39a42.5,42.5,0,0,1,4.16,1.72,8,8,0,0,1,2.68,2.16,5.35,5.35,0,0,1,1.12,3.47,6.11,6.11,0,0,1-1.1,3.61,7.09,7.09,0,0,1-3.15,2.43,12.45,12.45,0,0,1-4.84.86A12.65,12.65,0,0,1,4.63,24.81Z" transform="translate(-0.25 -0.5)"/><path class="a" d="M37.48.78h3.08q.59,0,.59.56v23.5q0,.56-.59.56H37.48q-.59,0-.59-.56V15c0-.14-.07-.21-.22-.21H27.39q-.22,0-.22.21v9.88q0,.56-.59.56H23.5q-.59,0-.59-.56V1.34q0-.56.59-.56h3.08q.59,0,.59.56V11q0,.21.22.21h9.28c.15,0,.22-.07.22-.21V1.34Q36.89.78,37.48.78Z" transform="translate(-0.25 -0.5)"/><path class="a" d="M61.83,24.95l-1.14-3.62q0-.18-.26-.18H50.82c-.15,0-.23.06-.26.18l-1.14,3.62a.62.62,0,0,1-.66.46H45.43a.49.49,0,0,1-.42-.18.52.52,0,0,1-.05-.46L52.8,1.24a.62.62,0,0,1,.66-.46h4.29a.63.63,0,0,1,.66.46L66.3,24.77a.48.48,0,0,1,0,.21q0,.42-.51.42H62.49A.62.62,0,0,1,61.83,24.95Zm-9.94-7h7.48c.15,0,.21-.08.18-.25l-3.78-12c0-.09-.07-.14-.13-.14s-.12,0-.16.14l-3.78,12C51.68,17.87,51.74,17.95,51.89,17.95Z" transform="translate(-0.25 -0.5)"/><path class="a" d="M84,25l-4.8-10.06c0-.09-.11-.14-.26-.14H74.66q-.22,0-.22.21v9.85q0,.56-.59.56H70.78q-.59,0-.59-.56V1.31c0-.37.2-.56.59-.56h9.94a8.46,8.46,0,0,1,4,.9,6.51,6.51,0,0,1,2.68,2.53,7.3,7.3,0,0,1,1,3.75,6.4,6.4,0,0,1-4.88,6.47.22.22,0,0,0-.15.12.13.13,0,0,0,0,.16l5.06,10.06.07.28c0,.26-.17.39-.51.39H84.71A.69.69,0,0,1,84,25ZM74.44,4.47V11.4c0,.14.07.21.22.21h5.46a4,4,0,0,0,2.84-1A3.41,3.41,0,0,0,84.05,8,3.56,3.56,0,0,0,83,5.3a3.94,3.94,0,0,0-2.84-1H74.66Q74.44,4.26,74.44,4.47Z" transform="translate(-0.25 -0.5)"/><path class="a" d="M96.49,24.68a7.75,7.75,0,0,1-3.28-3A8.8,8.8,0,0,1,92,17.1v-8A8.53,8.53,0,0,1,93.22,4.6a7.94,7.94,0,0,1,3.28-3,11.62,11.62,0,0,1,9.76,0,8,8,0,0,1,3.28,3,8.54,8.54,0,0,1,1.17,4.49v8a8.7,8.7,0,0,1-1.17,4.54,7.9,7.9,0,0,1-3.28,3,11.67,11.67,0,0,1-9.77,0Zm8.58-3.82a4.86,4.86,0,0,0,1.39-3.62V9a4.9,4.9,0,0,0-1.39-3.66A5.05,5.05,0,0,0,101.36,4,5,5,0,0,0,97.7,5.39,4.9,4.9,0,0,0,96.3,9v8.2a4.85,4.85,0,0,0,1.39,3.62,5,5,0,0,0,3.67,1.37A5.05,5.05,0,0,0,105.07,20.87Z" transform="translate(-0.25 -0.5)"/><path class="a" d="M115.45,24.84V1.34q0-.56.59-.56H119a.78.78,0,0,1,.73.39L130,17.28c0,.09.1.13.17.11s.09-.08.09-.18V1.34q0-.56.59-.56h3.08q.59,0,.59.56v23.5q0,.56-.59.56h-3a.77.77,0,0,1-.73-.39L119.88,8.8c0-.09-.1-.13-.16-.11s-.09.08-.09.18l0,16q0,.56-.59.56h-3Q115.45,25.41,115.45,24.84Z" transform="translate(-0.25 -0.5)"/><path class="a" d="M148.6,25.12V1.06q0-.28.29-.28h.59a.32.32,0,0,1,.33.18l7.67,11.47a.11.11,0,0,0,.07,0,.11.11,0,0,0,.07,0L165.32,1a.37.37,0,0,1,.33-.18h.59c.2,0,.29.09.29.28V25.12c0,.19-.1.28-.29.28h-.51c-.2,0-.29-.09-.29-.28V3a.08.08,0,0,0-.05-.09s-.07,0-.09.05l-7.15,10.73a.32.32,0,0,1-.33.18h-.4a.36.36,0,0,1-.33-.18L149.85,2.93s-.05-.06-.09-.05a.08.08,0,0,0-.06.09V25.12c0,.19-.1.28-.29.28h-.51C148.7,25.41,148.6,25.31,148.6,25.12Z" transform="translate(-0.25 -0.5)"/><path class="a" d="M177.77,24.68A7.06,7.06,0,0,1,174.9,22a7.78,7.78,0,0,1-1-4V8.27a8,8,0,0,1,1-4.06,7,7,0,0,1,2.88-2.74A9.1,9.1,0,0,1,182,.5a9.29,9.29,0,0,1,4.33,1,7,7,0,0,1,2.9,2.74,8,8,0,0,1,1,4.06v9.67a7.79,7.79,0,0,1-1,4,7,7,0,0,1-2.9,2.71,9.29,9.29,0,0,1-4.33,1A9.09,9.09,0,0,1,177.77,24.68Zm9.46-1.83a6.38,6.38,0,0,0,2-4.87V8.24a6.44,6.44,0,0,0-2-4.89A7.23,7.23,0,0,0,182,1.48a7.11,7.11,0,0,0-5.13,1.86A6.47,6.47,0,0,0,175,8.24V18a6.41,6.41,0,0,0,1.94,4.87A7.15,7.15,0,0,0,182,24.7,7.27,7.27,0,0,0,187.24,22.85Z" transform="translate(-0.25 -0.5)"/><path class="a" d="M203.21,25.16,194.88,1.1l0-.11a.19.19,0,0,1,.09-.14.32.32,0,0,1,.2-.07h.51A.32.32,0,0,1,196,1l7.78,22.62a.1.1,0,0,0,.07,0,.11.11,0,0,0,.07,0L211.75,1a.31.31,0,0,1,.33-.25h.48a.27.27,0,0,1,.22.09.24.24,0,0,1,0,.23l-8.36,24.06a.31.31,0,0,1-.33.25h-.59A.31.31,0,0,1,203.21,25.16Z" transform="translate(-0.25 -0.5)"/><path class="a" d="M233.39,1.77H218.94c-.07,0-.11,0-.11.11V12.46c0,.07,0,.11.11.11h10.45q.29,0,.29.28v.42c0,.19-.1.28-.29.28H218.94c-.07,0-.11,0-.11.11V24.31c0,.07,0,.11.11.11h14.45q.29,0,.29.28v.42c0,.19-.1.28-.29.28H218c-.2,0-.29-.09-.29-.28V1.06q0-.28.29-.28h15.37q.29,0,.29.28v.42Q233.69,1.77,233.39,1.77Z" transform="translate(-0.25 -0.5)"/><path class="a" d="M241,24a5.3,5.3,0,0,1-2.26-4.49v-1.3q0-.28.29-.28h.44c.2,0,.29.09.29.28v1.23a4.46,4.46,0,0,0,2,3.82,9.3,9.3,0,0,0,5.48,1.42,8.41,8.41,0,0,0,5.1-1.34,4.35,4.35,0,0,0,1.8-3.69,4.27,4.27,0,0,0-.73-2.5,7.37,7.37,0,0,0-2.33-2A36.06,36.06,0,0,0,246.59,13q-2.93-1.23-4.35-2A6.35,6.35,0,0,1,240,9.15a4.83,4.83,0,0,1-.81-2.88A5.06,5.06,0,0,1,241.17,2,9.07,9.07,0,0,1,246.74.5a9.75,9.75,0,0,1,6.11,1.67A5.43,5.43,0,0,1,255,6.69v.91c0,.19-.1.28-.29.28h-.51c-.2,0-.29-.09-.29-.28V6.76A4.59,4.59,0,0,0,252,2.93a8.64,8.64,0,0,0-5.34-1.44,8,8,0,0,0-4.73,1.2,4.07,4.07,0,0,0-1.65,3.52A4,4,0,0,0,241,8.68a5.94,5.94,0,0,0,2.07,1.65q1.34.69,4.2,1.81a22.74,22.74,0,0,1,6.07,3.31,5.22,5.22,0,0,1,1.89,4.15A5.35,5.35,0,0,1,253.14,24a9.45,9.45,0,0,1-6,1.67A10.11,10.11,0,0,1,241,24Z" transform="translate(-0.25 -0.5)"/></svg>
